# xmcd
#
# Track frame offsets:
#	150
#	12446
#	24746
#	37997
#	51874
#	63052
#	73639
#	84778
#	94645
#	106113
#	117436
#	128508
#	143131
#	154554
#	168988
#	202343
#	224691
#	245515
#	255676
#	272837
#	287806
#	333926
#
# Disc length: 4755 seconds
# Revision: 0
# Processed by: cddbd v1.5.2PL0 Copyright (c) Steve Scherf et al.
# Submitted via: dBpowerAMP V12.0
#
DISCID=39129116
DTITLE=Bo Diddley - Rock 'N' Roll Legend
DYEAR=2008
DGENRE=Blues
TTITLE0=Bo Diddley
TTITLE1=Pretty Thing
TTITLE2=I'm A Man
TTITLE3=Before You Accuse Me
TTITLE4=Who Do You Love?
TTITLE5=Mona (I Need You, Baby)
TTITLE6=Bring It To Jerome
TTITLE7=Hey! Bo Diddley
TTITLE8=I'm Looking For A Woman
TTITLE9=Say Boss Man
TTITLE10=Diddley Daddy
TTITLE11=I'm Bad
TTITLE12=Diddy Wah Diddy
TTITLE13=Downhome Special
TTITLE14=Intro/Bo Diddley Vamp
TTITLE15=Doctor Jeckyll
TTITLE16=Everleen
TTITLE17=I Don't Know Where I've Been
TTITLE18=You Can't Judge A book By The Cover
TTITLE19=Roadrunner
TTITLE20=I'm A Man
TTITLE21=Mona (I Need You, Baby)
EXTD=
EXTT0=
EXTT1=
EXTT2=
EXTT3=
EXTT4=
EXTT5=
EXTT6=
EXTT7=
EXTT8=
EXTT9=
EXTT10=
EXTT11=
EXTT12=
EXTT13=
EXTT14=
EXTT15=
EXTT16=
EXTT17=
EXTT18=
EXTT19=
EXTT20=
EXTT21=
PLAYORDER=
